<svg width="90" height="90" viewBox="0 0 90 90" fill="none" xmlns="http://www.w3.org/2000/svg">
<g clip-path="url(#clip0_2051_13)">
<path d="M44.8623 0C20.0861 0 0 20.0855 0 44.8618C0 69.6391 20.0861 89.723 44.8623 89.723C69.6413 89.723 89.7252 69.6391 89.7252 44.8618C89.7252 20.0871 69.6413 0.00214285 44.8618 0.00214285L44.8623 0ZM65.4359 64.7036C64.6323 66.0214 62.9073 66.4393 61.5895 65.6304C51.0562 59.1964 37.7962 57.7393 22.1802 61.3071C20.6754 61.65 19.1754 60.7071 18.8325 59.2018C18.488 57.6964 19.4271 56.1964 20.9357 55.8536C38.025 51.9477 52.6838 53.6304 64.5091 60.8571C65.827 61.6661 66.2448 63.3857 65.4359 64.7036ZM70.927 52.4866C69.9145 54.1339 67.7609 54.6536 66.1162 53.6411C54.0573 46.2273 35.6754 44.0807 21.412 48.4104C19.5621 48.9691 17.6084 47.9266 17.047 46.08C16.4898 44.2302 17.5329 42.2802 19.3795 41.7177C35.6721 36.7741 55.927 39.1687 69.7752 47.6786C71.4198 48.6911 71.9395 50.8441 70.927 52.4866ZM71.3984 39.7666C56.9395 31.1786 33.0841 30.3889 19.2793 34.5787C17.0625 35.2511 14.7182 33.9996 14.0464 31.7829C13.3746 29.565 14.625 27.2223 16.8434 26.5484C32.6904 21.7377 59.0341 22.6671 75.6809 32.5495C77.6791 33.7329 78.3327 36.308 77.1488 38.2993C75.9702 40.2932 73.388 40.9505 71.4005 39.7666H71.3984Z" fill="#E2D8CC"/>
</g>
<defs>
<clipPath id="clip0_2051_13">
<rect width="90" height="90" fill="white"/>
</clipPath>
</defs>
</svg>
