<svg width="305" height="307" viewBox="0 0 305 307" fill="none" xmlns="http://www.w3.org/2000/svg">
<g filter="url(#filter0_d_158_31)">
<path d="M248.254 94.8787C246.793 90.3338 241.311 88.5526 237.457 91.3708L228.575 97.8663C227.37 98.7478 225.915 99.2207 224.421 99.2161L213.418 99.1816C208.644 99.1667 205.256 103.83 206.745 108.366L210.178 118.82C210.644 120.239 210.644 121.769 210.178 123.188L206.745 133.642C205.256 138.178 208.644 142.841 213.418 142.826L224.421 142.792C225.915 142.787 227.37 143.26 228.575 144.141L237.457 150.637C241.311 153.455 246.793 151.674 248.254 147.129L251.621 136.653C252.078 135.232 252.978 133.994 254.188 133.12L263.111 126.68C266.982 123.886 266.982 118.122 263.111 115.328L254.188 108.888C252.978 108.014 252.078 106.776 251.621 105.354L248.254 94.8787Z" fill="#443C3D"/>
<path d="M248.254 94.8787C246.793 90.3338 241.311 88.5526 237.457 91.3708L228.575 97.8663C227.37 98.7478 225.915 99.2207 224.421 99.2161L213.418 99.1816C208.644 99.1667 205.256 103.83 206.745 108.366L210.178 118.82C210.644 120.239 210.644 121.769 210.178 123.188L206.745 133.642C205.256 138.178 208.644 142.841 213.418 142.826L224.421 142.792C225.915 142.787 227.37 143.26 228.575 144.141L237.457 150.637C241.311 153.455 246.793 151.674 248.254 147.129L251.621 136.653C252.078 135.232 252.978 133.994 254.188 133.12L263.111 126.68C266.982 123.886 266.982 118.122 263.111 115.328L254.188 108.888C252.978 108.014 252.078 106.776 251.621 105.354L248.254 94.8787Z" stroke="#E2D8CC" stroke-width="3"/>
</g>
<g filter="url(#filter1_d_158_31)">
<path d="M109.898 165.853C112.298 161.726 109.954 156.46 105.281 155.483L98.857 154.138C97.3955 153.832 96.0701 153.067 95.0744 151.954L90.6981 147.063C87.5148 143.505 81.7825 144.108 79.4084 148.25L76.1447 153.944C75.4021 155.239 74.2648 156.263 72.8988 156.866L66.8948 159.517C62.5276 161.445 61.3292 167.083 64.5346 170.621L68.9414 175.484C69.944 176.591 70.5665 177.989 70.7179 179.475L71.3836 186.004C71.8677 190.753 76.8595 193.635 81.2146 191.68L87.2018 188.992C88.564 188.38 90.0861 188.22 91.5457 188.535L97.961 189.92C102.628 190.927 106.911 187.07 106.397 182.324L105.691 175.799C105.53 174.314 105.848 172.817 106.599 171.526L109.898 165.853Z" fill="#443C3D"/>
<path d="M109.898 165.853C112.298 161.726 109.954 156.46 105.281 155.483L98.857 154.138C97.3955 153.832 96.0701 153.067 95.0744 151.954L90.6981 147.063C87.5148 143.505 81.7825 144.108 79.4084 148.25L76.1447 153.944C75.4021 155.239 74.2648 156.263 72.8988 156.866L66.8948 159.517C62.5276 161.445 61.3292 167.083 64.5346 170.621L68.9414 175.484C69.944 176.591 70.5665 177.989 70.7179 179.475L71.3836 186.004C71.8677 190.753 76.8595 193.635 81.2146 191.68L87.2018 188.992C88.564 188.38 90.0861 188.22 91.5457 188.535L97.961 189.92C102.628 190.927 106.911 187.07 106.397 182.324L105.691 175.799C105.53 174.314 105.848 172.817 106.599 171.526L109.898 165.853Z" stroke="#E2D8CC" stroke-width="3"/>
</g>
<g filter="url(#filter2_d_158_31)">
<path d="M128.112 79.2062C123.527 77.876 118.985 81.4247 119.167 86.1952L120.245 114.528C120.302 116.02 119.88 117.491 119.041 118.727L103.113 142.183C100.431 146.132 102.402 151.549 106.995 152.85L134.274 160.58C135.711 160.987 136.98 161.843 137.896 163.023L155.282 185.42C158.209 189.191 163.97 188.99 166.627 185.024L182.408 161.468C183.239 160.228 184.445 159.286 185.85 158.779L212.524 149.165C217.015 147.546 218.604 142.006 215.653 138.253L198.127 115.965C197.204 114.791 196.68 113.353 196.633 111.861L195.732 83.5215C195.58 78.7499 190.802 75.5267 186.321 77.1736L159.708 86.9542C158.306 87.4693 156.777 87.5228 155.343 87.1067L128.112 79.2062Z" fill="#443C3D"/>
<path d="M128.112 79.2062C123.527 77.876 118.985 81.4247 119.167 86.1952L120.245 114.528C120.302 116.02 119.88 117.491 119.041 118.727L103.113 142.183C100.431 146.132 102.402 151.549 106.995 152.85L134.274 160.58C135.711 160.987 136.98 161.843 137.896 163.023L155.282 185.42C158.209 189.191 163.97 188.99 166.627 185.024L182.408 161.468C183.239 160.228 184.445 159.286 185.85 158.779L212.524 149.165C217.015 147.546 218.604 142.006 215.653 138.253L198.127 115.965C197.204 114.791 196.68 113.353 196.633 111.861L195.732 83.5215C195.58 78.7499 190.802 75.5267 186.321 77.1736L159.708 86.9542C158.306 87.4693 156.777 87.5228 155.343 87.1067L128.112 79.2062Z" stroke="#E2D8CC" stroke-width="3"/>
</g>
<g filter="url(#filter3_d_158_31)">
<path d="M88.0473 198.26C83.3178 198.909 80.6117 203.999 82.7179 208.283L90.2162 223.536C90.875 224.876 91.088 226.391 90.8241 227.861L87.8204 244.589C86.9768 249.288 90.9807 253.435 95.7061 252.755L112.529 250.337C114.007 250.125 115.515 250.391 116.831 251.096L131.812 259.122C136.021 261.376 141.201 258.85 142.015 254.145L144.914 237.399C145.169 235.927 145.888 234.576 146.965 233.542L159.228 221.774C162.672 218.468 161.87 212.76 157.648 210.532L142.616 202.6C141.296 201.903 140.233 200.802 139.582 199.458L132.179 184.159C130.1 179.862 124.424 178.861 121 182.188L108.811 194.032C107.74 195.073 106.365 195.744 104.885 195.947L88.0473 198.26Z" fill="#443C3D"/>
<path d="M88.0473 198.26C83.3178 198.909 80.6117 203.999 82.7179 208.283L90.2162 223.536C90.875 224.876 91.088 226.391 90.8241 227.861L87.8204 244.589C86.9768 249.288 90.9807 253.435 95.7061 252.755L112.529 250.337C114.007 250.125 115.515 250.391 116.831 251.096L131.812 259.122C136.021 261.376 141.201 258.85 142.015 254.145L144.914 237.399C145.169 235.927 145.888 234.576 146.965 233.542L159.228 221.774C162.672 218.468 161.87 212.76 157.648 210.532L142.616 202.6C141.296 201.903 140.233 200.802 139.582 199.458L132.179 184.159C130.1 179.862 124.424 178.861 121 182.188L108.811 194.032C107.74 195.073 106.365 195.744 104.885 195.947L88.0473 198.26Z" stroke="#E2D8CC" stroke-width="3"/>
</g>
<defs>
<filter id="filter0_d_158_31" x="200.89" y="88.5166" width="70.624" height="72.9745" filterUnits="userSpaceOnUse" color-interpolation-filters="sRGB">
<feFlood flood-opacity="0" result="BackgroundImageFix"/>
<feColorMatrix in="SourceAlpha" type="matrix" values="0 0 0 0 0 0 0 0 0 0 0 0 0 0 0 0 0 0 127 0" result="hardAlpha"/>
<feOffset dy="4"/>
<feGaussianBlur stdDeviation="2"/>
<feComposite in2="hardAlpha" operator="out"/>
<feColorMatrix type="matrix" values="0 0 0 0 0 0 0 0 0 0 0 0 0 0 0 0 0 0 0.25 0"/>
<feBlend mode="normal" in2="BackgroundImageFix" result="effect1_dropShadow_158_31"/>
<feBlend mode="normal" in="SourceGraphic" in2="effect1_dropShadow_158_31" result="shape"/>
</filter>
<filter id="filter1_d_158_31" x="57.2197" y="143.23" width="59.1338" height="58.5707" filterUnits="userSpaceOnUse" color-interpolation-filters="sRGB">
<feFlood flood-opacity="0" result="BackgroundImageFix"/>
<feColorMatrix in="SourceAlpha" type="matrix" values="0 0 0 0 0 0 0 0 0 0 0 0 0 0 0 0 0 0 127 0" result="hardAlpha"/>
<feOffset dy="4"/>
<feGaussianBlur stdDeviation="2"/>
<feComposite in2="hardAlpha" operator="out"/>
<feColorMatrix type="matrix" values="0 0 0 0 0 0 0 0 0 0 0 0 0 0 0 0 0 0 0.25 0"/>
<feBlend mode="normal" in2="BackgroundImageFix" result="effect1_dropShadow_158_31"/>
<feBlend mode="normal" in="SourceGraphic" in2="effect1_dropShadow_158_31" result="shape"/>
</filter>
<filter id="filter2_d_158_31" x="96.3984" y="75.2371" width="126.256" height="122.391" filterUnits="userSpaceOnUse" color-interpolation-filters="sRGB">
<feFlood flood-opacity="0" result="BackgroundImageFix"/>
<feColorMatrix in="SourceAlpha" type="matrix" values="0 0 0 0 0 0 0 0 0 0 0 0 0 0 0 0 0 0 127 0" result="hardAlpha"/>
<feOffset dy="4"/>
<feGaussianBlur stdDeviation="2"/>
<feComposite in2="hardAlpha" operator="out"/>
<feColorMatrix type="matrix" values="0 0 0 0 0 0 0 0 0 0 0 0 0 0 0 0 0 0 0.25 0"/>
<feBlend mode="normal" in2="BackgroundImageFix" result="effect1_dropShadow_158_31"/>
<feBlend mode="normal" in="SourceGraphic" in2="effect1_dropShadow_158_31" result="shape"/>
</filter>
<filter id="filter3_d_158_31" x="76.4932" y="178.706" width="90.3887" height="90.7518" filterUnits="userSpaceOnUse" color-interpolation-filters="sRGB">
<feFlood flood-opacity="0" result="BackgroundImageFix"/>
<feColorMatrix in="SourceAlpha" type="matrix" values="0 0 0 0 0 0 0 0 0 0 0 0 0 0 0 0 0 0 127 0" result="hardAlpha"/>
<feOffset dy="4"/>
<feGaussianBlur stdDeviation="2"/>
<feComposite in2="hardAlpha" operator="out"/>
<feColorMatrix type="matrix" values="0 0 0 0 0 0 0 0 0 0 0 0 0 0 0 0 0 0 0.25 0"/>
<feBlend mode="normal" in2="BackgroundImageFix" result="effect1_dropShadow_158_31"/>
<feBlend mode="normal" in="SourceGraphic" in2="effect1_dropShadow_158_31" result="shape"/>
</filter>
</defs>
</svg>
