<svg width="280" height="333" viewBox="0 0 280 333" fill="none" xmlns="http://www.w3.org/2000/svg">
<path d="M96.5372 103.276C95.1503 102.354 93.3368 103.431 93.4322 105.048L93.4481 105.206L95.7354 122.297C95.9164 123.65 95.6303 125.022 94.9296 126.186L94.7844 126.417L85.2364 140.775C84.3141 142.162 85.391 143.976 87.0085 143.88L87.1667 143.864L104.258 141.577C105.61 141.396 106.982 141.682 108.147 142.383L108.377 142.528L122.735 152.076C124.122 152.998 125.936 151.921 125.84 150.304L125.825 150.146L123.537 133.055C123.356 131.702 123.642 130.331 124.343 129.166L124.488 128.936L134.036 114.577C134.959 113.19 133.882 111.376 132.264 111.472L132.106 111.488L115.015 113.775C113.662 113.956 112.291 113.67 111.126 112.969L110.896 112.824L96.5372 103.276Z" fill="#B59B79" stroke="black" stroke-width="4"/>
<path d="M125.479 98.7514C124.605 100.17 125.745 101.944 127.358 101.793L127.516 101.772L154.369 97.2186C155.714 96.9905 157.094 97.2286 158.283 97.8878L158.518 98.0258L181.711 112.306C183.13 113.18 184.904 112.04 184.752 110.426L184.732 110.269L180.178 83.4158C179.95 82.0705 180.188 80.69 180.847 79.5016L180.985 79.266L195.266 56.0738C196.14 54.6554 194.999 52.8801 193.386 53.0323L193.229 53.0532L166.375 57.6058C165.03 57.8339 163.649 57.5966 162.461 56.9371L162.226 56.8L139.034 42.5187C137.615 41.6454 135.84 42.7853 135.992 44.3986L136.013 44.5562L140.566 71.41C140.794 72.7552 140.556 74.135 139.896 75.3234L139.759 75.5584L125.479 98.7514Z" fill="#B59B79" stroke="black" stroke-width="4"/>
<path d="M80.0998 168.923C78.8505 168.931 78.1746 170.362 78.9127 171.328L78.9885 171.419L103.992 199.559C104.974 200.664 105.547 202.068 105.624 203.538L105.632 203.833L105.88 241.475C105.889 242.725 107.319 243.4 108.285 242.662L108.377 242.587L136.516 217.583C137.621 216.602 139.025 216.028 140.496 215.951L140.791 215.943L178.433 215.695C179.682 215.686 180.358 214.256 179.62 213.29L179.544 213.198L154.541 185.059C153.559 183.954 152.986 182.55 152.909 181.079L152.9 180.785L152.652 143.142C152.644 141.893 151.213 141.217 150.247 141.955L150.156 142.031L122.016 167.034C120.911 168.016 119.507 168.59 118.037 168.666L117.742 168.675L80.0998 168.923Z" fill="#B59B79" stroke="black" stroke-width="5"/>
<path d="M245.026 218.381C245.888 217.476 245.329 215.996 244.121 215.856L244.003 215.847L212.432 214.536C210.955 214.475 209.545 213.913 208.434 212.946L208.216 212.747L185.342 190.947C184.438 190.085 182.958 190.645 182.818 191.852L182.809 191.971L181.498 223.542C181.437 225.019 180.874 226.428 179.908 227.539L179.708 227.757L157.909 250.631C157.047 251.536 157.606 253.016 158.814 253.156L158.932 253.165L190.503 254.476C191.98 254.537 193.39 255.099 194.5 256.066L194.719 256.265L217.593 278.065C218.497 278.927 219.977 278.367 220.117 277.16L220.126 277.041L221.437 245.47C221.498 243.993 222.061 242.584 223.027 241.473L223.226 241.255L245.026 218.381Z" fill="#B59B79" stroke="black" stroke-width="5"/>
</svg>
