<svg width="90" height="90" viewBox="0 0 90 90" fill="none" xmlns="http://www.w3.org/2000/svg">
<path fill-rule="evenodd" clip-rule="evenodd" d="M45.0372 0C20.1328 0 0 20.6249 0 46.1407C0 66.5369 12.8998 83.8018 30.7952 89.9124C33.0326 90.3718 33.8521 88.9196 33.8521 87.6981C33.8521 86.6284 33.7784 82.9618 33.7784 79.1415C21.2501 81.8922 18.6412 73.6413 18.6412 73.6413C16.6278 68.2938 13.6447 66.9194 13.6447 66.9194C9.54416 64.0929 13.9433 64.0929 13.9433 64.0929C18.4919 64.3985 20.8786 68.8291 20.8786 68.8291C24.9044 75.8566 31.3917 73.8709 34.0015 72.6484C34.3739 69.6691 35.5677 67.6066 36.8353 66.461C26.8431 65.3913 16.3301 61.4191 16.3301 43.6958C16.3301 38.6539 18.1185 34.5289 20.9524 31.3208C20.5052 30.1752 18.939 25.438 21.4004 19.0977C21.4004 19.0977 25.2031 17.8752 33.7775 23.834C37.4484 22.824 41.2343 22.3102 45.0372 22.3058C48.84 22.3058 52.7164 22.8412 56.2961 23.834C64.8714 17.8752 68.6741 19.0977 68.6741 19.0977C71.1355 25.438 69.5683 30.1752 69.1212 31.3208C72.0297 34.5289 73.7444 38.6539 73.7444 43.6958C73.7444 61.4191 63.2313 65.3144 53.1645 66.461C54.8054 67.9122 56.2214 70.6619 56.2214 75.0166C56.2214 81.204 56.1477 86.17 56.1477 87.6971C56.1477 88.9196 56.9681 90.3718 59.2046 89.9134C77.1 83.8009 89.9998 66.5369 89.9998 46.1407C90.0735 20.6249 69.867 0 45.0372 0Z" fill="#E2D8CC"/>
</svg>
