<svg width="1440" height="1024" viewBox="0 0 1440 1024" fill="none" xmlns="http://www.w3.org/2000/svg">
<path d="M271.035 378.772C271.839 378.722 272.348 379.582 271.976 380.25L271.89 380.381L243.606 417.078C242.57 418.423 242.057 420.099 242.164 421.794L242.165 421.793L245.093 468.032C245.143 468.837 244.283 469.346 243.615 468.974L243.484 468.888L206.787 440.604C205.526 439.632 203.974 439.121 202.389 439.149L202.072 439.163L155.833 442.09C155.028 442.141 154.519 441.281 154.891 440.612L154.977 440.481L183.261 403.784L183.261 403.785C184.233 402.524 184.743 400.972 184.715 399.387L184.702 399.07L181.775 352.83C181.724 352.026 182.584 351.517 183.253 351.889L183.384 351.975L220.081 380.259C221.342 381.23 222.893 381.742 224.479 381.714L224.796 381.7L271.035 378.772Z" fill="#E2D8CC" stroke="black" stroke-width="6"/>
<path d="M606.224 107.523C607.004 107.723 607.223 108.698 606.663 109.219L606.54 109.317L586.696 122.893C585.382 123.792 584.417 125.11 583.954 126.626L583.868 126.932L577.898 150.223C577.697 151.003 576.722 151.222 576.201 150.662L576.103 150.539L562.527 130.695C561.628 129.381 560.31 128.416 558.794 127.953L558.488 127.867L535.197 121.897C534.417 121.697 534.198 120.721 534.758 120.2L534.881 120.102L554.725 106.526C556.039 105.627 557.004 104.31 557.467 102.793L557.553 102.487L563.523 79.1966C563.723 78.416 564.699 78.1975 565.22 78.7576L565.318 78.8801L578.894 98.7245C579.793 100.038 581.11 101.004 582.627 101.467L582.933 101.553L606.224 107.523Z" fill="#E2D8CC" stroke="black" stroke-width="6"/>
<path d="M1027.22 564.76C1028.01 564.878 1028.33 565.825 1027.83 566.402L1027.72 566.512L999.616 590.408C998.323 591.508 997.474 593.041 997.227 594.72L997.226 594.72L991.852 631.215C991.735 632.012 990.788 632.332 990.211 631.829L990.101 631.717L966.205 603.616C965.173 602.403 963.762 601.581 962.205 601.279L961.892 601.225L925.398 595.852C924.601 595.734 924.281 594.787 924.784 594.21L924.896 594.1L952.997 570.204C954.21 569.173 955.032 567.761 955.334 566.205L955.387 565.892L960.761 529.397C960.878 528.6 961.826 528.281 962.402 528.783L962.513 528.895L986.409 556.997C987.44 558.209 988.852 559.032 990.408 559.333L990.721 559.387L1027.22 564.76Z" fill="#E2D8CC" stroke="black" stroke-width="6"/>
<path d="M1204.01 292.279C1204.6 292.832 1204.32 293.791 1203.57 293.975L1203.42 294.002L1159.92 298.095C1158.34 298.244 1156.86 298.929 1155.72 300.031L1155.49 300.257L1125.49 332.011C1124.93 332.597 1123.98 332.315 1123.79 331.572L1123.77 331.418L1119.67 287.922C1119.52 286.338 1118.84 284.854 1117.74 283.714L1117.51 283.491L1085.76 253.487C1085.17 252.933 1085.45 251.974 1086.19 251.79L1086.35 251.764L1129.84 247.67C1131.43 247.521 1132.91 246.836 1134.05 245.735L1134.28 245.509L1164.28 213.754C1164.83 213.169 1165.79 213.45 1165.98 214.193L1166 214.348L1170.1 257.843C1170.25 259.428 1170.93 260.911 1172.03 262.051L1172.26 262.274L1204.01 292.279Z" fill="#E2D8CC" stroke="black" stroke-width="6"/>
<path d="M765.385 251.706C765.918 251.102 766.886 251.35 767.096 252.085L767.128 252.239L775.501 316.919C775.706 318.498 776.442 319.957 777.583 321.058L777.817 321.273L826.756 364.383C827.361 364.916 827.113 365.884 826.377 366.094L826.223 366.126L761.544 374.499C759.965 374.704 758.506 375.44 757.405 376.581L757.19 376.815L757.189 376.815L714.079 425.754C713.546 426.359 712.578 426.111 712.368 425.375L712.336 425.221L703.963 360.542C703.759 358.963 703.022 357.504 701.881 356.403L701.648 356.187L652.708 313.077C652.104 312.544 652.352 311.576 653.087 311.366L653.241 311.334L717.921 302.961C719.5 302.757 720.959 302.02 722.06 300.879L722.275 300.646L765.385 251.706Z" fill="#E2D8CC" stroke="black" stroke-width="6"/>
<path d="M575.051 686.617C575.828 686.831 576.029 687.81 575.46 688.321L575.336 688.417L510.463 731.155C509.134 732.031 508.145 733.332 507.655 734.84L507.564 735.145L486.965 810.049C486.751 810.826 485.772 811.028 485.261 810.459L485.165 810.334L442.427 745.462C441.551 744.132 440.25 743.143 438.742 742.654L438.437 742.563L363.533 721.963C362.756 721.75 362.554 720.771 363.123 720.259L363.248 720.164L428.12 677.426C429.45 676.55 430.439 675.249 430.928 673.741L431.019 673.436L451.619 598.531C451.832 597.754 452.811 597.553 453.323 598.122L453.419 598.246L496.156 663.119C497.032 664.448 498.333 665.437 499.841 665.927L500.146 666.018L575.051 686.617Z" fill="#E2D8CC" stroke="black" stroke-width="6"/>
<rect x="1684.67" y="172.017" width="336" height="336" rx="80" transform="rotate(102 1684.67 172.017)" fill="#443C3D" stroke="black" stroke-width="4"/>
<rect x="1561.22" y="81.6305" width="336" height="336" rx="80" transform="rotate(135 1561.22 81.6305)" fill="#443C3D" stroke="black" stroke-width="4"/>
<rect x="971.888" y="-122.769" width="336" height="336" rx="80" transform="rotate(102 971.888 -122.769)" fill="#443C3D" stroke="black" stroke-width="4"/>
<rect x="1307.22" y="61.6305" width="336" height="336" rx="80" transform="rotate(135 1307.22 61.6305)" fill="#443C3D" stroke="black" stroke-width="4"/>
<rect x="-238.674" y="878.984" width="336" height="336" rx="80" transform="rotate(-78 -238.674 878.984)" fill="#E2D8CC" stroke="black" stroke-width="4"/>
<rect x="-115.217" y="969.37" width="336" height="336" rx="80" transform="rotate(-45 -115.217 969.37)" fill="#E2D8CC" stroke="black" stroke-width="4"/>
<rect x="474.112" y="1173.77" width="336" height="336" rx="80" transform="rotate(-78 474.112 1173.77)" fill="#E2D8CC" stroke="black" stroke-width="4"/>
<rect x="138.783" y="989.37" width="336" height="336" rx="80" transform="rotate(-45 138.783 989.37)" fill="#E2D8CC" stroke="black" stroke-width="4"/>
</svg>
