<svg width="90" height="90" viewBox="0 0 90 90" fill="none" xmlns="http://www.w3.org/2000/svg">
<g clip-path="url(#clip0_2051_10)">
<path d="M45 0C20.1445 0 0 20.1445 0 45C0 64.0723 11.8652 80.3496 28.5996 86.9062C28.2129 83.3379 27.8438 77.8887 28.7578 74.0039C29.584 70.4883 34.0313 51.6445 34.0313 51.6445C34.0313 51.6445 32.6777 48.9551 32.6777 44.9648C32.6777 38.707 36.2988 34.0313 40.8164 34.0313C44.6484 34.0313 46.5117 36.9141 46.5117 40.377C46.5117 44.2441 44.0508 50.0098 42.7852 55.3535C41.7305 59.8359 45.0352 63.4922 49.4473 63.4922C57.4453 63.4922 63.5977 55.0547 63.5977 42.8906C63.5977 32.1152 55.8633 24.5742 44.8066 24.5742C32.0098 24.5742 24.4863 34.1719 24.4863 44.1035C24.4863 47.9707 25.9805 52.1191 27.8437 54.3691C28.2129 54.8086 28.2656 55.2129 28.1602 55.6523C27.8262 57.0762 27.0527 60.1348 26.9121 60.75C26.7188 61.5762 26.2617 61.752 25.4004 61.3477C19.7754 58.7285 16.2598 50.5195 16.2598 43.9102C16.2598 29.707 26.5781 16.6816 45.9844 16.6816C61.5938 16.6816 73.7227 27.8086 73.7227 42.6797C73.7227 58.1836 63.9492 70.6641 50.3789 70.6641C45.8262 70.6641 41.5371 68.291 40.0605 65.4961C40.0605 65.4961 37.8105 74.0918 37.2656 76.2012C36.2461 80.1035 33.5039 85.0078 31.6758 87.9961C35.8945 89.2969 40.3594 90 45 90C69.8555 90 90 69.8555 90 45C90 20.1445 69.8555 0 45 0Z" fill="#E2D8CC"/>
</g>
<defs>
<clipPath id="clip0_2051_10">
<rect width="90" height="90" fill="white"/>
</clipPath>
</defs>
</svg>
